HIERARCHY
ROOT hips_dup
{
	OFFSET 38.994835 108.019676 230.402130
	CHANNELS 6 Xposition Yposition Zposition Zrotation Yrotation Xrotation
	JOINT l_hip_dup
	{
		OFFSET 0.100000 0.000000 0.000000
		CHANNELS 3 Zrotation Yrotation Xrotation
		JOINT l_thigh_dup
		{
			OFFSET 7.071068 -7.071068 0.000000
			CHANNELS 3 Zrotation Yrotation Xrotation
			JOINT l_knee_dup
			{
				OFFSET 0.000020 -50.000011 0.000000
				CHANNELS 3 Zrotation Yrotation Xrotation
				JOINT l_foot_dup
				{
					OFFSET 0.000022 -46.844974 0.000000
					CHANNELS 3 Zrotation Yrotation Xrotation
					JOINT l_toes_dup
					{
						OFFSET 0.000004 -3.481765 12.994138
						CHANNELS 3 Zrotation Yrotation Xrotation
						End l_toes_End_dup
						{
							OFFSET 0.000000 0.000003 9.999998
						}
					}
				}
			}
		}
	}
	JOINT r_hip_dup
	{
		OFFSET 0.100000 0.000000 0.000000
		CHANNELS 3 Zrotation Yrotation Xrotation
		JOINT r_thigh_dup
		{
			OFFSET -7.071067 -7.071068 0.000000
			CHANNELS 3 Zrotation Yrotation Xrotation
			JOINT r_knee_dup
			{
				OFFSET 0.000026 -50.000000 -0.000000
				CHANNELS 3 Zrotation Yrotation Xrotation
				JOINT r_foot_dup
				{
					OFFSET 0.000021 -46.844951 0.000000
					CHANNELS 3 Zrotation Yrotation Xrotation
					JOINT r_toes_dup
					{
						OFFSET 0.000006 -3.481758 12.994106
						CHANNELS 3 Zrotation Yrotation Xrotation
						End r_toes_End_dup
						{
							OFFSET 0.000000 -0.000003 9.999996
						}
					}
				}
			}
		}
	}
	JOINT spine1_dup
	{
		OFFSET 0.000000 0.099998 0.000000
		CHANNELS 3 Zrotation Yrotation Xrotation
		JOINT spine2_dup
		{
			OFFSET 0.000001 10.421844 0.000000
			CHANNELS 3 Zrotation Yrotation Xrotation
			JOINT spine3_dup
			{
				OFFSET 0.000001 10.421852 0.000000
				CHANNELS 3 Zrotation Yrotation Xrotation
				JOINT spine4_dup
				{
					OFFSET 0.000001 10.421829 -0.000000
					CHANNELS 3 Zrotation Yrotation Xrotation
					JOINT neck1_dup
					{
						OFFSET 0.000001 10.421814 0.000000
						CHANNELS 3 Zrotation Yrotation Xrotation
						JOINT neck2_dup
						{
							OFFSET 0.000000 5.749954 -0.000000
							CHANNELS 3 Zrotation Yrotation Xrotation
							JOINT head_dup
							{
								OFFSET 0.000000 5.749924 0.000000
								CHANNELS 3 Zrotation Yrotation Xrotation
								End head_End_dup
								{
									OFFSET 0.000000 11.499686 -0.000000
								}
							}
						}
					}
					JOINT l_clavicle_dup
					{
						OFFSET 0.000000 10.421844 0.000000
						CHANNELS 3 Zrotation Yrotation Xrotation
						JOINT l_shoulder_dup
						{
							OFFSET 17.847798 3.850716 -0.981963
							CHANNELS 3 Zrotation Yrotation Xrotation
							JOINT l_elbow_dup
							{
								OFFSET 30.849020 0.000016 -0.000001
								CHANNELS 3 Zrotation Yrotation Xrotation
								JOINT l_hand_dup
								{
									OFFSET 30.320339 0.000015 -0.000002
									CHANNELS 3 Zrotation Yrotation Xrotation
									End l_hand_End_dup
									{
										OFFSET 14.999237 0.000010 0.000000
									}
								}
							}
						}
					}
					JOINT r_clavicle_dup
					{
						OFFSET 0.000000 10.421844 0.000000
						CHANNELS 3 Zrotation Yrotation Xrotation
						JOINT r_shoulder_dup
						{
							OFFSET -18.112579 2.260853 -1.076626
							CHANNELS 3 Zrotation Yrotation Xrotation
							JOINT r_elbow_dup
							{
								OFFSET -30.849059 0.000005 0.000001
								CHANNELS 3 Zrotation Yrotation Xrotation
								JOINT r_hand_dup
								{
									OFFSET -30.627892 0.000005 0.000004
									CHANNELS 3 Zrotation Yrotation Xrotation
									End r_hand_End_dup
									{
										OFFSET -14.999262 0.000003 0.000000
									}
								}
							}
						}
					}
				}
			}
		}
	}
}
MOTION
Frames: 6
Frame Time: 0.033333
0.0000 0.0000 0.0000 0.0000 0.0000 0.0000 0.0000 0.0000 0.0000 14.0991 -0.303255 -51.0568 -12.8173 18.0839 45.3947 3.71796 -5.37725 5.46902 0.0000 0.0000 0.0000 0.0000 0.0000 0.0000 -6.77131 6.988 11.181 0.50536 2.48086 39.9879 4.81866 0.515733 -12.3012 0.0000 0.0000 0.0000 0.0000 0.0000 0.0000 0.0000 0.0000 0.0000 0.0000 0.0000 0.0000 0.0000 0.0000 0.0000 0.0000 0.0000 0.0000 0.0000 0.0000 0.0000 0.0000 0.0000 0.0000 0.0000 0.0000 0.0000 -56.3445 -19.204 76.3295 105.88 -64.0396 -103.341 -6.05669 -30.871 -11.8793 0.0000 0.0000 0.0000 58.369 -3.35087 28.4231 -67.3756 40.9645 -147.808 32.4289 -2.03072 -1.57332 
0.0000 0.0000 0.0000 0.0000 0.0000 0.0000 0.0000 0.0000 0.0000 14.1432 -0.925964 -51.1857 -11.7268 17.7594 46.0755 3.50386 -4.75001 5.19164 0.0000 0.0000 0.0000 0.0000 0.0000 0.0000 -6.49571 6.90188 11.0248 0.627077 2.98194 40.4643 4.23192 0.224901 -12.1046 0.0000 0.0000 0.0000 0.0000 0.0000 0.0000 0.0000 0.0000 0.0000 0.0000 0.0000 0.0000 0.0000 0.0000 0.0000 0.0000 0.0000 0.0000 0.0000 0.0000 0.0000 0.0000 0.0000 0.0000 0.0000 0.0000 0.0000 -57.1322 -19.5017 76.9578 105.325 -63.9323 -102.864 -6.48021 -30.75 -11.2986 0.0000 0.0000 0.0000 58.679 -2.93402 28.7696 -67.0723 41.1341 -147.862 32.2625 -1.68717 -1.14039 
0.0000 0.0000 0.0000 0.0000 0.0000 0.0000 0.0000 0.0000 0.0000 14.0813 -1.72827 -51.0114 -10.4401 17.3325 46.4211 3.14584 -4.12946 4.67629 0.0000 0.0000 0.0000 0.0000 0.0000 0.0000 -6.4525 6.40362 10.9899 0.985741 3.36952 40.5861 3.77275 0.27859 -11.4745 0.0000 0.0000 0.0000 0.0000 0.0000 0.0000 0.0000 0.0000 0.0000 0.0000 0.0000 0.0000 0.0000 0.0000 0.0000 0.0000 0.0000 0.0000 0.0000 0.0000 0.0000 0.0000 0.0000 0.0000 0.0000 0.0000 0.0000 -58.0974 -19.8796 77.5557 105.028 -64.031 -102.576 -6.9241 -30.585 -10.9907 0.0000 0.0000 0.0000 58.7596 -2.77713 29.0303 -67.0306 41.376 -147.899 32.2269 -1.54776 -0.76866 
0.0000 0.0000 0.0000 0.0000 0.0000 0.0000 0.0000 0.0000 0.0000 13.9896 -2.61287 -50.5719 -9.11553 16.5579 46.4688 2.76167 -3.26982 3.94868 0.0000 0.0000 0.0000 0.0000 0.0000 0.0000 -6.46621 5.86927 10.9474 1.31575 3.49888 40.4796 3.21994 0.496172 -10.5018 0.0000 0.0000 0.0000 0.0000 0.0000 0.0000 0.0000 0.0000 0.0000 0.0000 0.0000 0.0000 0.0000 0.0000 0.0000 0.0000 0.0000 0.0000 0.0000 0.0000 0.0000 0.0000 0.0000 0.0000 0.0000 0.0000 0.0000 -59.1931 -20.3208 78.1499 104.818 -64.2204 -102.371 -7.04722 -30.4422 -10.8382 0.0000 0.0000 0.0000 58.6119 -2.82366 28.9408 -67.3479 41.4909 -147.874 32.0763 -1.43836 -0.519473 
0.0000 0.0000 0.0000 0.0000 0.0000 0.0000 0.0000 0.0000 0.0000 14.0477 -3.73383 -49.924 -7.79799 15.8209 46.1487 2.32639 -2.29698 3.14799 0.0000 0.0000 0.0000 0.0000 0.0000 0.0000 -6.53248 5.20882 10.9981 1.60959 3.38986 40.0686 2.62317 0.984142 -9.19266 0.0000 0.0000 0.0000 0.0000 0.0000 0.0000 0.0000 0.0000 0.0000 0.0000 0.0000 0.0000 0.0000 0.0000 0.0000 0.0000 0.0000 0.0000 0.0000 0.0000 0.0000 0.0000 0.0000 0.0000 0.0000 0.0000 0.0000 -60.3797 -20.7646 78.7584 104.711 -64.4594 -102.32 -6.84516 -30.2908 -10.8371 0.0000 0.0000 0.0000 58.2801 -3.01948 28.4768 -67.9165 41.2514 -147.677 31.5183 -1.19463 -0.29243 
0.0000 0.0000 0.0000 0.0000 0.0000 0.0000 0.0000 0.0000 0.0000 13.9462 -4.88113 -49.082 -6.43788 15.3052 45.4756 1.807 -1.65755 2.38619 0.0000 0.0000 0.0000 0.0000 0.0000 0.0000 -6.62974 4.56771 10.9533 1.8066 3.08256 39.6077 1.99066 1.54266 -7.53306 0.0000 0.0000 0.0000 0.0000 0.0000 0.0000 0.0000 0.0000 0.0000 0.0000 0.0000 0.0000 0.0000 0.0000 0.0000 0.0000 0.0000 0.0000 0.0000 0.0000 0.0000 0.0000 0.0000 0.0000 0.0000 0.0000 0.0000 -61.5821 -21.1354 79.3367 104.85 -64.7405 -102.56 -6.5557 -30.1607 -10.9054 0.0000 0.0000 0.0000 57.8552 -3.33877 27.6 -68.6459 40.5332 -147.253 30.6962 -0.883782 -0.160783 
